<?xml version="1.0" encoding="utf-8"?>
<!-- Generator: Adobe Illustrator 27.0.0, SVG Export Plug-In . SVG Version: 6.00 Build 0)  -->
<svg version="1.1" id="Layer_1" xmlns="http://www.w3.org/2000/svg" xmlns:xlink="http://www.w3.org/1999/xlink" x="0px" y="0px"
	 viewBox="0 0 256 256" style="enable-background:new 0 0 256 256;" xml:space="preserve">
<style type="text/css">
	.st0{fill:#FA6900;}
</style>
<path class="st0" d="M64.2,140.3l23.5-2.9v17.4l-65.9,17.9l40.8-68.4L29.4,100V74l60.1,16.6L64.2,140.3z"/>
<path class="st0" d="M120.4,142.4c-3.1,5.3-8.6,10.1-16.2,11.4c-8.3,1.4-15.3-2-19.7-7.2c-5.2-6.1-7.8-15.6-7.8-24.3
	s2.6-18.1,7.8-24.3c4.4-5.2,11.4-8.6,19.7-7.2c7.6,1.3,13.2,6.2,16.2,11.5c3.3,5.7,4.9,13.3,4.9,20
	C125.3,129,123.7,136.8,120.4,142.4z M96.4,110.9c-2.1,2.8-3.3,6.5-3.3,11.6c0,5.7,1.6,9.3,3.3,11.6c1.8,2.3,4.3,4.1,7.8,3.8
	c2.9-0.2,5.2-1.8,7-4.6c1.8-2.8,2.7-6.2,2.7-10.7s-1-7.9-2.7-10.7c-1.8-2.8-4.2-4.4-7.1-4.7C101.1,106.9,98.5,108.2,96.4,110.9z"/>
<path class="st0" d="M157.1,140.3c-3.1,4.5-8.6,8.3-15.9,8.9c-7.5,0.5-13.7-2.8-17.3-7.2c-4.2-5.1-6.3-12.7-6.3-19.5
	s2.1-14.3,6.3-19.5c3.7-4.5,9.8-7.8,17.3-7.2c7.3,0.5,12.7,4.4,15.9,8.9c3.5,5,5.1,11.8,5.1,17.8
	C162.2,128.5,160.6,135.3,157.1,140.3z M134.3,112.9c-1.9,2.4-2.9,5.5-2.9,9.6c0,4.7,1.4,7.7,2.9,9.6c1.6,2,3.8,3.5,7.1,3.4
	c2.7-0.1,4.9-1.4,6.7-3.8c1.7-2.3,2.7-5.3,2.7-9.3s-1-6.9-2.7-9.3c-1.7-2.4-4-3.7-6.8-3.8C138.4,109.3,136.1,110.5,134.3,112.9z"/>
<path class="st0" d="M173.9,133.2l18.3-0.2v12.3l-40.5,1.1l21.1-34.7l-17.9-0.2V98.7l39,1.1L173.9,133.2z"/>
<path class="st0" d="M220.4,99.7h14.7v45.5h-14.7v-5.5c-4,6.1-9.7,7-13.5,7c-6.5,0-12-1.6-17-6.9c-4.8-5.1-6.6-11-6.6-17
	c0-7.7,2.9-14.2,7-18.4c4-4,9.5-6.2,15.8-6.2c3.9,0,10.1,0.9,14.3,6.6V99.7L220.4,99.7z M201.8,114.1c-1.5,1.5-3.4,4.2-3.4,8.3
	s1.7,6.7,3.1,8.2c2,2.1,5.2,3.6,8.7,3.6c3,0,5.7-1.2,7.6-3.2c1.9-1.8,3.6-4.7,3.6-8.6c0-3.3-1.2-6.3-3.4-8.4
	c-2.2-2.1-5.5-3.2-8.2-3.2C206.6,110.8,203.7,112.2,201.8,114.1z"/>
</svg>
